<?xml version="1.0" standalone="no"?>
<!DOCTYPE svg PUBLIC "-//W3C//DTD SVG 20010904//EN"
 "http://www.w3.org/TR/2001/REC-SVG-20010904/DTD/svg10.dtd">
<svg version="1.0" xmlns="http://www.w3.org/2000/svg"
 width="849.000000pt" height="849.000000pt" viewBox="0 0 849.000000 849.000000"
 preserveAspectRatio="xMidYMid meet">
<metadata>
Created by potrace 1.14, written by Peter Selinger 2001-2017
</metadata>
<g transform="translate(0.000000,849.000000) scale(0.100000,-0.100000)"
fill="#000000" stroke="none">
<path d="M3998 8485 c-1 -1 -44 -5 -95 -9 -50 -3 -124 -10 -165 -16 -40 -5
-89 -12 -108 -14 -54 -8 -103 -15 -130 -21 -22 -4 -74 -14 -165 -31 -16 -3
-64 -14 -105 -25 -71 -19 -84 -22 -127 -33 -182 -45 -702 -245 -724 -279 -3
-5 -9 -8 -13 -8 -11 2 -191 -91 -194 -100 -2 -5 -8 -9 -14 -9 -10 0 -72 -35
-157 -88 -20 -12 -46 -28 -58 -34 -13 -6 -23 -15 -23 -20 0 -4 -4 -8 -10 -8
-8 0 -135 -85 -175 -117 -6 -4 -37 -28 -70 -53 -33 -25 -66 -49 -72 -55 -58
-47 -89 -73 -110 -92 -13 -13 -26 -23 -28 -23 -21 0 -435 -420 -435 -441 0 -4
-4 -9 -9 -11 -5 -1 -34 -34 -65 -73 -31 -38 -59 -74 -64 -80 -4 -5 -19 -26
-32 -45 -14 -19 -30 -39 -36 -45 -45 -39 -377 -588 -366 -603 2 -3 0 -8 -5
-11 -11 -7 -48 -87 -121 -256 -121 -284 -221 -632 -277 -960 -2 -16 -9 -66
-15 -110 -6 -44 -14 -93 -17 -110 -10 -51 -12 -815 -3 -890 5 -38 12 -90 15
-115 3 -25 7 -56 9 -70 3 -14 7 -43 10 -65 2 -22 9 -60 15 -85 5 -25 12 -61
15 -80 3 -19 19 -91 37 -160 17 -69 33 -136 35 -149 3 -13 9 -32 14 -41 5 -9
11 -28 14 -41 7 -39 73 -229 116 -335 22 -53 40 -103 40 -111 0 -7 5 -13 10
-13 6 0 10 -6 10 -13 0 -8 17 -49 38 -93 22 -43 47 -97 57 -119 28 -58 174
-315 201 -352 13 -17 24 -34 24 -37 0 -4 16 -29 35 -56 19 -28 51 -74 72 -102
20 -29 40 -54 45 -56 4 -2 8 -10 8 -17 0 -7 4 -15 8 -17 4 -1 23 -24 42 -50
18 -27 37 -48 42 -48 4 0 8 -5 8 -11 0 -6 6 -16 13 -23 6 -7 32 -37 57 -66
188 -223 411 -434 680 -643 68 -53 324 -227 334 -227 3 0 24 -13 48 -29 78
-52 336 -185 478 -246 36 -15 79 -34 97 -41 17 -8 33 -14 36 -14 2 0 22 -8 43
-17 22 -9 44 -18 49 -19 6 -2 37 -13 70 -25 33 -12 112 -37 175 -55 63 -19
130 -39 148 -45 18 -6 45 -13 60 -15 15 -3 45 -10 67 -15 65 -16 77 -18 135
-30 55 -10 87 -16 138 -23 15 -2 43 -7 62 -10 34 -6 50 -8 175 -24 33 -4 236
-7 450 -7 335 0 454 5 536 20 9 2 40 6 70 10 30 3 68 9 84 12 17 3 39 7 50 9
33 4 205 41 290 63 213 52 427 125 665 226 139 58 426 209 529 277 14 10 37
23 51 30 14 7 34 21 44 30 11 10 28 20 38 24 10 3 18 10 18 15 0 5 5 9 10 9
12 0 170 115 285 208 159 128 368 327 495 472 30 35 62 70 70 79 8 9 44 52 78
96 35 44 73 90 83 103 10 12 19 24 19 27 0 3 15 24 33 48 17 24 39 54 47 67 8
12 23 33 33 45 9 13 17 28 17 33 0 6 4 12 8 14 9 3 113 173 158 258 16 30 32
57 36 60 3 3 10 18 13 33 4 15 11 30 16 33 19 11 148 304 206 464 18 52 36
102 40 110 3 8 7 20 9 27 1 7 11 41 23 75 11 35 25 83 32 108 7 25 14 50 15
55 3 10 23 89 29 115 8 35 56 267 59 290 42 261 50 376 51 675 0 313 -8 427
-55 730 -12 76 -27 148 -72 330 -84 345 -244 745 -418 1047 -75 128 -181 296
-196 309 -8 6 -14 18 -14 25 0 8 -4 14 -10 14 -5 0 -10 7 -10 15 0 8 -4 15 -8
15 -4 0 -16 13 -25 30 -10 16 -23 35 -30 42 -7 7 -32 40 -57 73 -122 162 -347
402 -514 550 -38 33 -78 69 -90 80 -11 11 -45 38 -74 60 -28 21 -52 43 -52 47
0 4 -5 8 -11 8 -6 0 -33 18 -59 40 -26 22 -52 40 -58 40 -6 0 -12 4 -14 8 -4
11 -226 159 -303 202 -33 19 -62 36 -65 39 -19 22 -470 241 -525 255 -5 2 -23
8 -40 15 -111 44 -366 129 -410 137 -6 1 -44 11 -85 22 -69 19 -289 64 -370
77 -19 3 -46 7 -60 10 -14 2 -45 7 -70 9 -81 9 -144 17 -180 22 -39 5 -606 14
-612 9z"/>
</g>
</svg>
